<svg xmlns="http://www.w3.org/2000/svg" xmlns:xlink="http://www.w3.org/1999/xlink" viewBox="0 0 165.97 48.29"><defs><style>.cls-1{fill:#fff;fill-rule:evenodd;}.cls-2{mask:url(#mask);}</style><mask id="mask" x="72.01" y="0" width="93.96" height="48.29" maskUnits="userSpaceOnUse"><g id="b"><path id="a" class="cls-1" d="M72,0h94V48.29H72Z"/></g></mask></defs><title>white-logo</title><g id="Layer_2" data-name="Layer 2"><g id="Layer_1-2" data-name="Layer 1"><path class="cls-1" d="M0,14.1v.12L28,27.35,56,14.18v0L28,1Zm10.08.06L28,5.77l17.88,8.39L28,22.56l-17.87-8.4ZM28,32.45,0,19.52V24.3l28,13L56,24.26V19.48Zm0,9.71L0,29.22V34L28,47,56,34V29.18Z"/><g class="cls-2"><path class="cls-1" d="M159.56,24.12a8.1,8.1,0,0,0-2.16-5.57,7.17,7.17,0,0,0-2.34-1.67,7.07,7.07,0,0,0-5.7,0A7.06,7.06,0,0,0,147,18.55a8.27,8.27,0,0,0,0,11.15,7.36,7.36,0,0,0,2.34,1.67,7.07,7.07,0,0,0,5.7,0,7.48,7.48,0,0,0,2.34-1.67,8.12,8.12,0,0,0,2.16-5.58Zm6.41,0a13.32,13.32,0,0,1-1.07,5.38A13.09,13.09,0,0,1,162,33.78a14,14,0,0,1-4.38,2.85,13.82,13.82,0,0,1-5.37,1,13.65,13.65,0,0,1-5.35-1,13.8,13.8,0,0,1-4.36-2.88,13,13,0,0,1-2.94-4.3,13.15,13.15,0,0,1-1.07-5.33,12.9,12.9,0,0,1,1.09-5.28,14,14,0,0,1,3-4.33,13.76,13.76,0,0,1,4.37-2.89,13.4,13.4,0,0,1,5.3-1,14,14,0,0,1,9.75,3.9,13,13,0,0,1,2.94,4.3A13.35,13.35,0,0,1,166,24.12ZM136.26,36.88a9.41,9.41,0,0,1-1.72.58,9.17,9.17,0,0,1-2,.22,10.12,10.12,0,0,1-2.74-.38,6.06,6.06,0,0,1-2.29-1.23,5.78,5.78,0,0,1-1.56-2.2,8.29,8.29,0,0,1-.58-3.28V0h6.55V29.47a3,3,0,0,0,.64,2.21,2.19,2.19,0,0,0,1.54.6,3.83,3.83,0,0,0,2.14-.67ZM122.49,11.19,110.91,41.83a10.5,10.5,0,0,1-3.39,5,8.34,8.34,0,0,1-5,1.51,8.27,8.27,0,0,1-2-.27l-2.14-6a8.5,8.5,0,0,0,1.56.55,6,6,0,0,0,1.51.21,5.5,5.5,0,0,0,2.76-.7,4.45,4.45,0,0,0,1.92-2.56L107,37,97.1,11.19h7L110,27.78l5.57-16.59ZM95.54,7.31H78.79v8.3H95.31v5.61H78.78V37H72V1.38H95.54V7.31Z"/></g></g></g></svg>